<?xml version="1.0" encoding="utf-8"?>
<!-- Generator: Adobe Illustrator 16.0.0, SVG Export Plug-In . SVG Version: 6.00 Build 0)  -->
<!DOCTYPE svg PUBLIC "-//W3C//DTD SVG 1.1//EN" "http://www.w3.org/Graphics/SVG/1.1/DTD/svg11.dtd">
<svg version="1.1" id="Layer_1" xmlns="http://www.w3.org/2000/svg" xmlns:xlink="http://www.w3.org/1999/xlink" x="0px" y="0px"
	 width="158.5px" height="158.5px" viewBox="0 0 158.5 158.5" enable-background="new 0 0 158.5 158.5" xml:space="preserve">
<path fill="#EF4423" d="M74.251,24.25v50h-50v-35c0-8.28,6.71-15,15-15H74.251z"/>
<path fill="#242424" d="M134.251,39.25v35h-50v-50h35C127.531,24.25,134.251,30.97,134.251,39.25z"/>
<path fill="#EF4423" d="M134.251,84.25v35c0,8.279-6.72,15-15,15h-35v-50H134.251z"/>
<path fill="#242424" d="M74.251,84.25v50h-35c-8.29,0-15-6.721-15-15v-35H74.251z"/>
<g>
	<path fill="#EF4423" d="M122.943,14.75c11.492,0,20.807,9.315,20.807,20.807v87.387c0,11.492-9.315,20.807-20.807,20.807H35.557
		c-11.492,0-20.807-9.315-20.807-20.807V35.557c0-11.492,9.315-20.807,20.807-20.807H122.943 M122.943,8.896H35.557
		c-14.701,0-26.661,11.96-26.661,26.661v87.387c0,14.701,11.96,26.661,26.661,26.661h87.387c14.701,0,26.661-11.96,26.661-26.661
		V35.557C149.604,20.856,137.644,8.896,122.943,8.896L122.943,8.896z"/>
</g>
</svg>
